<?xml version="1.0" encoding="UTF-8"?><svg id="Layer_2" xmlns="http://www.w3.org/2000/svg" viewBox="0 0 710.48 197.28"><defs><style>.cls-1{fill:#c67fb3;}.cls-1,.cls-2,.cls-3{stroke-width:1.84px;}.cls-1,.cls-2,.cls-3,.cls-4{stroke:#000;stroke-miterlimit:10;}.cls-2{fill:#a3cecb;}.cls-3{fill:#efaf7b;}.cls-4{fill:none;stroke-width:1.99px;}</style></defs><g id="Layer_1-2"><path d="m0,179.63v-80.61c0-.55.44-.99.99-.99h38.04c15.99,0,28.23,9.93,28.23,25.91,0,12.02-6.4,20.18-14.45,23.82,6.17,2.65,10.03,8.6,10.03,15.22,0,9.26-7.06,17.75-18.64,17.75H.99c-.66,0-.99-.44-.99-1.1Zm38.93-34.29c12.24,0,21.39-8.16,21.39-20.73,0-11.91-8.93-20.07-21.5-20.07h-21.94c-.99,0-1.32.11-1.32.55v40.25h23.38Zm5.29,28.89c7.17,0,11.8-5.18,11.8-11.36s-4.85-11.03-11.91-11.03H15.55v22.05c0,.33.77.33,1.43.33h27.24Z"/><path d="m76.31,148.65c0-18.42,15.11-33.41,33.63-33.41,6.06,0,12.13,1.65,17.31,4.96v-2.54c0-.66.55-1.1,1.1-1.1h11.8c.66,0,.99.44.99,1.1,0,3.53-.22,6.95-.22,14.11v34.19c0,6.62.22,10.47.22,13.67,0,.66-.44,1.1-.99,1.1h-11.8c-.55,0-1.1-.44-1.1-1.1v-2.43c-5.07,3.2-11.03,4.96-17.31,4.96-18.53,0-33.63-15.11-33.63-33.52Zm50.61,20.95v-41.79c0-.11-6.18-6.51-16.98-6.51-15.11,0-27.13,12.35-27.13,27.35s12.02,27.46,27.13,27.46c10.81,0,16.98-6.4,16.98-6.51Z"/><path d="m172.47,177.21v2.43c0,.66-.44,1.1-1.1,1.1h-11.69c-.55,0-1.1-.44-1.1-1.1,0-3.2.22-7.06.22-13.67v-52.82c0-7.06-.22-10.47-.22-14,0-.66.55-1.1,1.1-1.1h12.13c.66,0,1.21.44,1.21,1.1,0,4.74-.22,9.48-.22,14.22v6.62c5.07-3.2,11.03-4.74,16.98-4.74,18.53,0,33.63,15,33.63,33.41s-15.11,33.52-33.63,33.52c-6.29,0-12.24-1.76-17.31-4.96Zm44.44-28.56c0-15-12.02-27.35-27.13-27.35-10.7,0-16.98,6.4-16.98,6.51v41.79c0,.11,6.29,6.51,16.98,6.51,15.11,0,27.13-12.46,27.13-27.46Z"/><path d="m245.59,196.06c.88-1.65,2.2-3.97,5.84-11.58l3.97-8.16-22.16-45.32c-3.75-7.94-5.4-10.7-6.62-13.23-.22-.55.11-1.21.66-1.21h14.01c.44,0,.99.33,1.21.88,1.1,2.21,2.21,4.74,6.06,13.01l14.67,30.65,14.78-30.99c3.86-8.05,4.96-10.7,6.06-12.9.22-.55.66-.77,1.1-.77h5.62c.66,0,.88.66.66,1.21-1.21,2.32-2.98,5.29-6.95,13.67l-26.13,53.48c-3.75,7.72-4.52,9.82-5.4,11.58-.33.55-.77.88-1.21.88h-5.51c-.66,0-.88-.77-.66-1.21Z"/><path d="m336.01,179.63c0-1.76.11-4.52.11-12.46v-68.15c0-.55.44-.99.99-.99h28.89c20.73,0,35.73,13.12,35.73,32.42,0,17.09-10.48,29.44-26.69,32.86,6.4,4.52,9.26,12.35,18.75,12.35,1.87,0,3.53-.22,5.73-1.43.55-.22,1.1-.11,1.32.55l1.1,4.3c.22.66-.11,1.32-.66,1.54-3.2,1.1-5.4,1.32-7.94,1.32-16.43,0-18.42-16.87-31.1-16.87h-10.59v2.65c0,7.72.11,10.14.11,11.91,0,.66-.44,1.1-.99,1.1h-13.78c-.44,0-.99-.44-.99-1.1Zm28.78-20.95c17.31,0,30.1-11.25,30.1-28.23,0-15.88-12.24-25.91-29-25.91h-13.01c-.88,0-1.21.11-1.21.44v53.7h13.12Z"/><path d="m413.76,148.54c0-18.31,15-33.3,33.63-33.3s33.41,14.89,33.41,32.97c0,1.76-.66,3.42-2.43,3.42h-49.51v16.87c0,.11,6.73,7.61,18.53,7.61,10.37,0,19.3-5.07,23.71-13.12.33-.55.88-.77,1.43-.44l3.64,2.87c.66.33.44.99.22,1.43-6.06,9.37-16.87,15.33-29,15.33-18.64,0-33.63-15.11-33.63-33.63Zm15.11-2.98h45.43c-1.32-13.34-13.01-24.26-26.91-24.26-11.69,0-18.53,7.39-18.53,7.5v16.76Z"/><path d="m491.28,148.65c0-18.42,15.11-33.41,33.63-33.41,6.06,0,12.13,1.65,17.31,4.96v-2.54c0-.66.55-1.1,1.1-1.1h11.8c.66,0,.99.44.99,1.1,0,3.53-.22,6.95-.22,14.11v34.19c0,6.62.22,10.47.22,13.67,0,.66-.44,1.1-.99,1.1h-11.8c-.55,0-1.1-.44-1.1-1.1v-2.43c-5.07,3.2-11.03,4.96-17.31,4.96-18.52,0-33.63-15.11-33.63-33.52Zm50.62,20.95v-41.79c0-.11-6.18-6.51-16.98-6.51-15.11,0-27.13,12.35-27.13,27.35s12.02,27.46,27.13,27.46c10.81,0,16.98-6.4,16.98-6.51Z"/><path d="m569.91,148.65c0-18.42,15.11-33.41,33.63-33.41,5.96,0,11.91,1.55,16.98,4.74v-6.51c0-4.85-.11-9.59-.11-14.33,0-.66.44-1.1,1.1-1.1h12.13c.55,0,1.1.44,1.1,1.1,0,3.53-.22,6.95-.22,14v52.82c0,6.62.22,10.47.22,13.67,0,.66-.55,1.1-1.1,1.1h-11.69c-.55,0-1.1-.44-1.1-1.1v-2.43c-5.07,3.2-11.03,4.96-17.31,4.96-18.52,0-33.63-15.11-33.63-33.52Zm50.62,20.95v-41.79c0-.11-6.18-6.51-16.98-6.51-15.11,0-27.13,12.35-27.13,27.35s12.02,27.46,27.13,27.46c10.81,0,16.98-6.4,16.98-6.51Z"/><path d="m664.52,196.06c.88-1.65,2.21-3.97,5.84-11.58l3.97-8.16-22.16-45.32c-3.75-7.94-5.4-10.7-6.62-13.23-.22-.55.11-1.21.66-1.21h14.01c.44,0,.99.33,1.21.88,1.1,2.21,2.2,4.74,6.06,13.01l14.67,30.65,14.78-30.99c3.86-8.05,4.96-10.7,6.06-12.9.22-.55.66-.77,1.1-.77h5.62c.66,0,.88.66.66,1.21-1.21,2.32-2.98,5.29-6.95,13.67l-26.13,53.48c-3.75,7.72-4.52,9.82-5.4,11.58-.33.55-.77.88-1.21.88h-5.51c-.66,0-.88-.77-.66-1.21Z"/><polygon class="cls-3" points="431.76 80.15 435.59 87.92 444.16 89.16 437.96 95.21 439.42 103.74 431.76 99.71 424.09 103.74 425.56 95.21 419.35 89.16 427.92 87.92 431.76 80.15"/><polygon class="cls-3" points="533.86 80.15 537.69 87.92 546.26 89.16 540.06 95.21 541.52 103.74 533.86 99.71 526.19 103.74 527.66 95.21 521.46 89.16 530.03 87.92 533.86 80.15"/><path class="cls-4" d="m630.29,60.83c-81.54-80.51-212.67-79.67-293.18,1.88"/><line class="cls-4" x1="383.74" y1="27.03" x2="383.74" y2="60.11"/><circle class="cls-1" cx="382.82" cy="70.22" r="10.11"/><line class="cls-4" x1="431.76" y1="7.73" x2="431.76" y2="81.25"/><line class="cls-4" x1="482.49" y1=".38" x2="482.49" y2="43.57"/><path class="cls-2" d="m482.17,60.68c0-8.37,5.47-15.46,13.03-17.9-1.83-.59-3.77-.92-5.79-.92-10.39,0-18.82,8.43-18.82,18.82,0,10.39,8.43,18.82,18.82,18.82,2.02,0,3.97-.33,5.79-.92-7.56-2.44-13.03-9.53-13.03-17.9Z"/><line class="cls-4" x1="533.86" y1="7.73" x2="533.86" y2="81.25"/><line class="cls-4" x1="583.88" y1="25.77" x2="583.88" y2="58.85"/><circle class="cls-1" cx="582.96" cy="68.96" r="10.11"/></g></svg>