<?xml version="1.0" encoding="UTF-8"?><svg id="Layer_2" xmlns="http://www.w3.org/2000/svg" viewBox="0 0 375.62 134.42"><defs><style>.cls-1{fill:#a3cecb;}.cls-1,.cls-2,.cls-3{stroke-width:2.34px;}.cls-1,.cls-2,.cls-3,.cls-4{stroke:#000;stroke-miterlimit:10;}.cls-2{fill:#c67fb3;}.cls-3{fill:#efaf7b;}.cls-4{fill:none;stroke-width:2.54px;}</style></defs><g id="Layer_1-2"><polygon class="cls-3" points="121.59 102.2 126.48 112.1 137.4 113.69 129.5 121.4 131.36 132.28 121.59 127.14 111.82 132.28 113.68 121.4 105.78 113.69 116.7 112.1 121.59 102.2"/><polygon class="cls-3" points="251.77 102.2 256.66 112.1 267.59 113.69 259.68 121.4 261.55 132.28 251.77 127.14 242 132.28 243.87 121.4 235.96 113.69 246.89 112.1 251.77 102.2"/><path class="cls-4" d="m374.72,77.56C270.75-25.09,103.55-24.02.9,79.96"/><line class="cls-4" x1="60.36" y1="34.46" x2="60.36" y2="76.64"/><circle class="cls-2" cx="59.19" cy="89.53" r="12.89"/><line class="cls-4" x1="121.59" y1="9.86" x2="121.59" y2="103.59"/><line class="cls-4" x1="186.28" y1=".48" x2="186.28" y2="55.55"/><path class="cls-1" d="m185.87,77.38c0-10.67,6.97-19.71,16.61-22.83-2.33-.75-4.81-1.17-7.38-1.17-13.25,0-24,10.74-24,24,0,13.25,10.74,24,24,24,2.58,0,5.06-.42,7.38-1.17-9.64-3.12-16.61-12.15-16.61-22.83Z"/><line class="cls-4" x1="251.77" y1="9.86" x2="251.77" y2="103.59"/><line class="cls-4" x1="315.56" y1="32.86" x2="315.56" y2="75.04"/><circle class="cls-2" cx="314.39" cy="87.93" r="12.89"/></g></svg>